<svg xmlns="http://www.w3.org/2000/svg" width="1320" height="760" viewBox="0 0 1320 760"><rect x="0" y="0" width="1320" height="760" fill="#F2F3F3" rx="0"/><rect x="0" y="0" width="1320" height="48" fill="#232F3E" rx="0"/><rect x="14" y="11" width="26" height="26" fill="#FF9900" rx="4"/><text x="20" y="29" font-family="Helvetica, Arial, sans-serif" font-size="16" fill="#232F3E" font-weight="700" text-anchor="start">a</text><text x="50" y="30" font-family="Helvetica, Arial, sans-serif" font-size="14" fill="#FFFFFF" font-weight="700" text-anchor="start">Services</text><rect x="150" y="10" width="360" height="28" fill="#FFFFFF" rx="4"/><text x="165" y="29" font-family="Helvetica, Arial, sans-serif" font-size="13" fill="#879596"  text-anchor="start">Search [ Alt+S ]</text><rect x="1020" y="10" width="150" height="28" fill="#1B2531" rx="4" stroke="#3A4654" stroke-width="1"/><text x="1028" y="29" font-family="Helvetica, Arial, sans-serif" font-size="12" fill="#D5DBDB"  text-anchor="start">N. Virginia  us-east-1</text><rect x="1180" y="10" width="120" height="28" fill="#1B2531" rx="4" stroke="#3A4654" stroke-width="1"/><text x="1188" y="29" font-family="Helvetica, Arial, sans-serif" font-size="12" fill="#D5DBDB"  text-anchor="start">acme-pharma / dev</text><rect x="0" y="48" width="980" height="46" fill="#FFFFFF" rx="0" stroke="#D5DBDB" stroke-width="1"/><text x="24" y="78" font-family="Helvetica, Arial, sans-serif" font-size="20" fill="#16191F" font-weight="700" text-anchor="start">AWS Step Functions</text><text x="960" y="76" font-family="Helvetica, Arial, sans-serif" font-size="12" fill="#5F6B7A"  text-anchor="end">Step Functions &gt; State machines &gt; Execution</text><rect x="0" y="94" width="210" height="666" fill="#FAFAFA" rx="0" stroke="#D5DBDB" stroke-width="1"/><text x="16" y="124" font-family="Helvetica, Arial, sans-serif" font-size="13" fill="#16191F"  text-anchor="start">State machines</text><rect x="0" y="138" width="210" height="30" fill="#F1FAFF" rx="0"/><rect x="0" y="138" width="3" height="30" fill="#0073BB" rx="0"/><text x="16" y="158" font-family="Helvetica, Arial, sans-serif" font-size="13" fill="#0073BB" font-weight="700" text-anchor="start">Executions</text><text x="16" y="192" font-family="Helvetica, Arial, sans-serif" font-size="13" fill="#16191F"  text-anchor="start">Activities</text><rect x="230" y="110" width="726" height="430" fill="#FFFFFF" rx="6" stroke="#D5DBDB" stroke-width="1"/><text x="248" y="138" font-family="Helvetica, Arial, sans-serif" font-size="15" fill="#16191F" font-weight="700" text-anchor="start">Execution  ·  hcls-dev-04-site-patient-matching</text><rect x="248" y="150" width="150" height="26" fill="#FFF3CD" rx="4" stroke="#F0C36D" stroke-width="1"/><text x="260" y="168" font-family="Helvetica, Arial, sans-serif" font-size="12" fill="#8A6D00" font-weight="700" text-anchor="start">Status: RUNNING</text><rect x="806" y="148" width="150" height="34" rx="4" fill="#EC7211"/><text x="881.0" y="170.0" font-family="Helvetica, Arial, sans-serif" font-size="14" fill="#FFFFFF" font-weight="700" text-anchor="middle">Start execution</text><rect x="290" y="198" width="260" height="38" fill="#EAF6E9" rx="6" stroke="#1D8102" stroke-width="2"/><rect x="290" y="198" width="6" height="38" fill="#1D8102" rx="0"/><text x="310" y="222" font-family="Helvetica, Arial, sans-serif" font-size="13" fill="#16191F" font-weight="700" text-anchor="start">Assemble</text><text x="498" y="222" font-family="Helvetica, Arial, sans-serif" font-size="11.5" fill="#1D8102" font-weight="700" text-anchor="start">done</text><line x1="420" y1="236" x2="420" y2="248" stroke="#879596" stroke-width="2"/><rect x="290" y="248" width="260" height="38" fill="#EAF6E9" rx="6" stroke="#1D8102" stroke-width="2"/><rect x="290" y="248" width="6" height="38" fill="#1D8102" rx="0"/><text x="310" y="272" font-family="Helvetica, Arial, sans-serif" font-size="13" fill="#16191F" font-weight="700" text-anchor="start">Draft</text><text x="498" y="272" font-family="Helvetica, Arial, sans-serif" font-size="11.5" fill="#1D8102" font-weight="700" text-anchor="start">done</text><line x1="420" y1="286" x2="420" y2="298" stroke="#879596" stroke-width="2"/><rect x="290" y="298" width="260" height="38" fill="#EAF6E9" rx="6" stroke="#1D8102" stroke-width="2"/><rect x="290" y="298" width="6" height="38" fill="#1D8102" rx="0"/><text x="310" y="322" font-family="Helvetica, Arial, sans-serif" font-size="13" fill="#16191F" font-weight="700" text-anchor="start">Check</text><text x="498" y="322" font-family="Helvetica, Arial, sans-serif" font-size="11.5" fill="#1D8102" font-weight="700" text-anchor="start">done</text><line x1="420" y1="336" x2="420" y2="348" stroke="#879596" stroke-width="2"/><rect x="290" y="348" width="260" height="38" fill="#EAF6E9" rx="6" stroke="#1D8102" stroke-width="2"/><rect x="290" y="348" width="6" height="38" fill="#1D8102" rx="0"/><text x="310" y="372" font-family="Helvetica, Arial, sans-serif" font-size="13" fill="#16191F" font-weight="700" text-anchor="start">RouteDecision</text><text x="498" y="372" font-family="Helvetica, Arial, sans-serif" font-size="11.5" fill="#1D8102" font-weight="700" text-anchor="start">done</text><line x1="420" y1="386" x2="420" y2="398" stroke="#879596" stroke-width="2"/><rect x="290" y="398" width="260" height="38" fill="#FFF3CD" rx="6" stroke="#FF9900" stroke-width="2"/><rect x="290" y="398" width="6" height="38" fill="#FF9900" rx="0"/><text x="310" y="422" font-family="Helvetica, Arial, sans-serif" font-size="13" fill="#16191F" font-weight="700" text-anchor="start">HumanReviewGate</text><text x="462" y="422" font-family="Helvetica, Arial, sans-serif" font-size="11.5" fill="#8A6D00" font-weight="700" text-anchor="start">WAITING</text><line x1="420" y1="436" x2="420" y2="448" stroke="#879596" stroke-width="2"/><rect x="290" y="448" width="260" height="38" fill="#F2F3F3" rx="6" stroke="#AAB7B8" stroke-width="2"/><rect x="290" y="448" width="6" height="38" fill="#AAB7B8" rx="0"/><text x="310" y="472" font-family="Helvetica, Arial, sans-serif" font-size="13" fill="#16191F" font-weight="700" text-anchor="start">Finalize</text><text x="590" y="416" font-family="Helvetica, Arial, sans-serif" font-size="12.5" fill="#16191F"  text-anchor="start">waitForTaskToken — paused for the</text><text x="590" y="434" font-family="Helvetica, Arial, sans-serif" font-size="12.5" fill="#D13212" font-weight="700" text-anchor="start">SITE_SELECTION_LEAD (HITL gate)</text><text x="590" y="460" font-family="Helvetica, Arial, sans-serif" font-size="11.5" fill="#5F6B7A"  text-anchor="start">On approval, Finalize runs:</text><text x="590" y="477" font-family="Helvetica, Arial, sans-serif" font-size="11.5" fill="#16191F" font-weight="700" text-anchor="start">record the site ranking &amp; cohort summary (no irreversible write)</text><circle cx="806" cy="165" r="15" fill="#FF9900" stroke="#FFFFFF" stroke-width="2"/><text x="806" y="170" font-family="Helvetica, Arial" font-size="15" font-weight="700" fill="#232F3E" text-anchor="middle">1</text><circle cx="290" cy="398" r="15" fill="#FF9900" stroke="#FFFFFF" stroke-width="2"/><text x="290" y="403" font-family="Helvetica, Arial" font-size="15" font-weight="700" fill="#232F3E" text-anchor="middle">2</text><circle cx="290" cy="448" r="15" fill="#FF9900" stroke="#FFFFFF" stroke-width="2"/><text x="290" y="453" font-family="Helvetica, Arial" font-size="15" font-weight="700" fill="#232F3E" text-anchor="middle">3</text><rect x="981" y="48" width="339" height="712" fill="#FBFBFC" rx="0" stroke="#D5DBDB" stroke-width="1"/><text x="999" y="80" font-family="Helvetica, Arial, sans-serif" font-size="12" fill="#EC7211" font-weight="700" text-anchor="start">STEPS</text><text x="999" y="104" font-family="Helvetica, Arial, sans-serif" font-size="15" fill="#16191F" font-weight="700" text-anchor="start">Phase 8 — Smoke test + human gate</text><circle cx="1011" cy="140" r="15" fill="#FF9900" stroke="#FFFFFF" stroke-width="2"/><text x="1011" y="145" font-family="Helvetica, Arial" font-size="15" font-weight="700" fill="#232F3E" text-anchor="middle">1</text><text x="1033" y="136" font-family="Helvetica, Arial, sans-serif" font-size="12.5" fill="#16191F"  text-anchor="start">Start execution with the agent&#x27;s</text><text x="1033" y="152" font-family="Helvetica, Arial, sans-serif" font-size="12.5" fill="#16191F"  text-anchor="start">sample_input.json.</text><circle cx="1011" cy="192" r="15" fill="#FF9900" stroke="#FFFFFF" stroke-width="2"/><text x="1011" y="197" font-family="Helvetica, Arial" font-size="15" font-weight="700" fill="#232F3E" text-anchor="middle">2</text><text x="1033" y="188" font-family="Helvetica, Arial, sans-serif" font-size="12.5" fill="#16191F"  text-anchor="start">The graph pauses at</text><text x="1033" y="204" font-family="Helvetica, Arial, sans-serif" font-size="12.5" fill="#16191F"  text-anchor="start">HumanReviewGate (waitForTaskToken)</text><text x="1033" y="220" font-family="Helvetica, Arial, sans-serif" font-size="12.5" fill="#16191F"  text-anchor="start">for the SITE_SELECTION_LEAD — by</text><text x="1033" y="236" font-family="Helvetica, Arial, sans-serif" font-size="12.5" fill="#16191F"  text-anchor="start">design.</text><circle cx="1011" cy="276" r="15" fill="#FF9900" stroke="#FFFFFF" stroke-width="2"/><text x="1011" y="281" font-family="Helvetica, Arial" font-size="15" font-weight="700" fill="#232F3E" text-anchor="middle">3</text><text x="1033" y="272" font-family="Helvetica, Arial, sans-serif" font-size="12.5" fill="#16191F"  text-anchor="start">Approve via send-task-success with</text><text x="1033" y="288" font-family="Helvetica, Arial, sans-serif" font-size="12.5" fill="#16191F"  text-anchor="start">a verified reviewer; the machine</text><text x="1033" y="304" font-family="Helvetica, Arial, sans-serif" font-size="12.5" fill="#16191F"  text-anchor="start">resumes to Finalize.</text><text x="999" y="740" font-family="Helvetica, Arial, sans-serif" font-size="10" fill="#5F6B7A"  text-anchor="start">Illustrative mockup — not an actual AWS screenshot</text></svg>